<svg width="32" height="32" viewBox="0 0 32 32" fill="none" xmlns="http://www.w3.org/2000/svg">
<g id="mdi:calendar" clip-path="url(#clip0_54_327)">
<path id="Vector" d="M28.8508 28.8915H6.80637V11.7943H28.8508M24.127 0.914307V4.02288H11.5302V0.914307H8.38098V4.02288H6.80637C5.05856 4.02288 3.65717 5.40619 3.65717 7.13145V28.8915C3.65717 29.7159 3.98896 30.5066 4.57955 31.0895C5.17014 31.6725 5.97115 32 6.80637 32H28.8508C29.686 32 30.4871 31.6725 31.0776 31.0895C31.6682 30.5066 32 29.7159 32 28.8915V7.13145C32 6.30701 31.6682 5.51633 31.0776 4.93336C30.4871 4.35039 29.686 4.02288 28.8508 4.02288H27.2762V0.914307M25.7016 18.0114H17.8286V25.7829H25.7016V18.0114Z" fill="white"/>
</g>
<defs>
<clipPath id="clip0_54_327">
<rect width="32" height="32" fill="white"/>
</clipPath>
</defs>
</svg>
