<svg width="33" height="33" viewBox="0 0 33 33" fill="none" xmlns="http://www.w3.org/2000/svg">
<path d="M19.25 16.5V27.335C19.305 27.7475 19.1675 28.1875 18.8512 28.4762C18.724 28.6037 18.5729 28.7048 18.4066 28.7738C18.2403 28.8428 18.062 28.8784 17.8819 28.8784C17.7018 28.8784 17.5235 28.8428 17.3571 28.7738C17.1908 28.7048 17.0397 28.6037 16.9125 28.4762L14.1487 25.7125C13.9988 25.5659 13.8848 25.3866 13.8156 25.1886C13.7464 24.9906 13.724 24.7793 13.75 24.5713V16.5H13.7087L5.78875 6.3525C5.56546 6.06585 5.46471 5.70248 5.50851 5.34178C5.5523 4.98108 5.7371 4.65238 6.0225 4.4275C6.28375 4.235 6.5725 4.125 6.875 4.125H26.125C26.4275 4.125 26.7162 4.235 26.9775 4.4275C27.2629 4.65238 27.4477 4.98108 27.4915 5.34178C27.5353 5.70248 27.4345 6.06585 27.2112 6.3525L19.2912 16.5H19.25Z" fill="#ADADAD"/>
</svg>
