<svg width="38" height="40" viewBox="0 0 38 40" fill="none" xmlns="http://www.w3.org/2000/svg">
<g id="mdi:patient-outline">
<path id="Vector" d="M19 16.6666C22.4992 16.6666 25.3334 13.6833 25.3334 9.99992C25.3334 6.31659 22.4992 3.33325 19 3.33325C15.5009 3.33325 12.6667 6.31659 12.6667 9.99992C12.6667 13.6833 15.5009 16.6666 19 16.6666ZM19 6.66659C20.7417 6.66659 22.1667 8.16659 22.1667 9.99992C22.1667 11.8333 20.7417 13.3333 19 13.3333C17.2584 13.3333 15.8334 11.8333 15.8334 9.99992C15.8334 8.16659 17.2584 6.66659 19 6.66659ZM29.1175 20.9333C26.4575 19.4999 23.0059 18.3333 19 18.3333C14.9942 18.3333 11.5425 19.4999 8.88252 20.9333C8.10995 21.3521 7.46275 21.9881 7.01276 22.7707C6.56278 23.5533 6.32761 24.4518 6.33335 25.3666V36.6666H9.50002V25.3666C9.50002 24.7333 9.81669 24.1666 10.2917 23.8999C12.2075 22.8833 15.2475 21.6666 19 21.6666C20.2034 21.6666 21.3275 21.7833 22.3725 21.9999L19.9184 27.4999H15.4375C13.0309 27.4999 11.0834 29.5499 11.0834 32.0833C11.0834 34.6166 13.0309 36.6666 15.4375 36.6666H28.5C30.2417 36.6666 31.6667 35.1666 31.6667 33.3333V25.3666C31.6667 23.4999 30.7009 21.7833 29.1175 20.9333ZM17.3217 33.3333H15.4375C14.7884 33.3333 14.25 32.7666 14.25 32.0833C14.25 31.3999 14.7884 30.8333 15.4375 30.8333H18.43L17.3217 33.3333ZM28.5 33.3333H20.8209L25.4759 22.8833C26.3309 23.2166 27.075 23.5666 27.7084 23.8999C28.1834 24.1666 28.5 24.7333 28.5 25.3666V33.3333Z" fill="white"/>
</g>
</svg>
